<!-- Mobile version - single column -->
<svg viewBox="0 0 600 560" width="100%" height="560" xmlns="http://www.w3.org/2000/svg">
    <style>
        text { font-family: -apple-system, BlinkMacSystemFont, "Segoe UI", Roboto, Helvetica, Arial, sans-serif; }
        .box-bg { fill: #e9f7ef; stroke: #b7e4c7; stroke-width: 1; }
        .title { font-weight: 700; font-size: 14px; fill: #1a202c; }
        .content { font-size: 11px; fill: #4a5568; }
    </style>

    <g>
        <rect class="box-bg" x="16" y="16" width="568" height="78" rx="6"/>
        <rect x="16" y="16" width="4" height="78" fill="#42b883"/>
        <text class="title" x="32" y="48">Battle Tested</text>
        <text class="content" x="32" y="74">100% PHPUnit coverage &#8226; 100% Infection MSI &#8226; Super-Linter &#8226; StyleCI</text>
    </g>

    <g>
        <rect class="box-bg" x="16" y="106" width="568" height="78" rx="6"/>
        <rect x="16" y="106" width="4" height="78" fill="#42b883"/>
        <text class="title" x="32" y="138">Inertia v3</text>
        <text class="content" x="32" y="164">Deferred, merge, once props &#8226; Partial reloads &#8226; CSRF cookie-to-header</text>
    </g>

    <g>
        <rect class="box-bg" x="16" y="196" width="568" height="78" rx="6"/>
        <rect x="16" y="196" width="4" height="78" fill="#42b883"/>
        <text class="title" x="32" y="228">PHP 8.3+</text>
        <text class="content" x="32" y="254">Strict types &#8226; Readonly props &#8226; Enums &#8226; PHPStan Level Max ready</text>
    </g>

    <g>
        <rect class="box-bg" x="16" y="286" width="568" height="78" rx="6"/>
        <rect x="16" y="286" width="4" height="78" fill="#42b883"/>
        <text class="title" x="32" y="318">React Bootstrap</text>
        <text class="content" x="32" y="344">Drop-in Yii2 bootstrap class &#8226; React-aware root view &#8226; Inertia payload injection</text>
    </g>

    <g>
        <rect class="box-bg" x="16" y="376" width="568" height="78" rx="6"/>
        <rect x="16" y="376" width="4" height="78" fill="#42b883"/>
        <text class="title" x="32" y="408">React Refresh</text>
        <text class="content" x="32" y="434">Canonical preamble for @vitejs/plugin-react &#8226; Opt-in via preambleProvider closure</text>
    </g>

    <g>
        <rect class="box-bg" x="16" y="466" width="568" height="78" rx="6"/>
        <rect x="16" y="466" width="4" height="78" fill="#42b883"/>
        <text class="title" x="32" y="498">Vite Integration</text>
        <text class="content" x="32" y="524">Dev server tags &#8226; Manifest-driven production &#8226; modulepreload support</text>
    </g>
</svg>
