<svg viewBox="0 0 1200 380" width="100%" height="380" xmlns="http://www.w3.org/2000/svg">
    <style>
        text { font-family: -apple-system, BlinkMacSystemFont, "Segoe UI", Roboto, Helvetica, Arial, sans-serif; }
        .box-bg { fill: #e9f7ef; stroke: #b7e4c7; stroke-width: 1; }
        .title { font-weight: 700; font-size: 16px; fill: #1a202c; }
        .content { font-size: 13px; fill: #4a5568; }
    </style>

    <g>
        <rect class="box-bg" x="20" y="20" width="570" height="100" rx="6"/>
        <rect x="20" y="20" width="4" height="100" fill="#42b883"/>
        <text class="title" x="40" y="58">Battle Tested</text>
        <text class="content" x="40" y="88">100% PHPUnit coverage &#8226; 100% Infection MSI &#8226; Super-Linter &#8226; StyleCI</text>
    </g>

    <g>
        <rect class="box-bg" x="610" y="20" width="570" height="100" rx="6"/>
        <rect x="610" y="20" width="4" height="100" fill="#42b883"/>
        <text class="title" x="630" y="58">Inertia v3</text>
        <text class="content" x="630" y="88">Deferred, merge, once props &#8226; Partial reloads &#8226; CSRF cookie-to-header</text>
    </g>

    <g>
        <rect class="box-bg" x="20" y="140" width="570" height="100" rx="6"/>
        <rect x="20" y="140" width="4" height="100" fill="#42b883"/>
        <text class="title" x="40" y="178">PHP 8.3+</text>
        <text class="content" x="40" y="208">Strict types &#8226; Readonly props &#8226; Enums &#8226; PHPStan Level Max ready</text>
    </g>

    <g>
        <rect class="box-bg" x="610" y="140" width="570" height="100" rx="6"/>
        <rect x="610" y="140" width="4" height="100" fill="#42b883"/>
        <text class="title" x="630" y="178">React Bootstrap</text>
        <text class="content" x="630" y="208">Drop-in Yii2 bootstrap class &#8226; React-aware root view &#8226; Inertia payload injection</text>
    </g>

    <g>
        <rect class="box-bg" x="20" y="260" width="570" height="100" rx="6"/>
        <rect x="20" y="260" width="4" height="100" fill="#42b883"/>
        <text class="title" x="40" y="298">React Refresh</text>
        <text class="content" x="40" y="328">Canonical preamble for @vitejs/plugin-react &#8226; Opt-in via preambleProvider closure</text>
    </g>

    <g>
        <rect class="box-bg" x="610" y="260" width="570" height="100" rx="6"/>
        <rect x="610" y="260" width="4" height="100" fill="#42b883"/>
        <text class="title" x="630" y="298">Vite Integration</text>
        <text class="content" x="630" y="328">Dev server tags &#8226; Manifest-driven production &#8226; modulepreload support</text>
    </g>
</svg>
